<?xml version="1.0" encoding="UTF-8" standalone="no"?>
<!DOCTYPE svg PUBLIC "-//W3C//DTD SVG 1.1//EN"
 "http://www.w3.org/Graphics/SVG/1.1/DTD/svg11.dtd">
<!-- Generated by graphviz version 2.40.1 (20161225.0304)
 -->
<!-- Title: turing_machine Pages: 1 -->
<svg width="617pt" height="872pt"
 viewBox="0.00 0.00 617.00 871.67" xmlns="http://www.w3.org/2000/svg" xmlns:xlink="http://www.w3.org/1999/xlink">
<g id="graph0" class="graph" transform="scale(1 1) rotate(0) translate(4 867.6655)">
<title>turing_machine</title>
<polygon fill="#ffffff" stroke="transparent" points="-4,4 -4,-867.6655 612.9965,-867.6655 612.9965,4 -4,4"/>
<!-- q0 -->
<g id="node1" class="node">
<title>q0</title>
<ellipse fill="#cccccc" stroke="#cccccc" cx="223.4983" cy="-840.1672" rx="19.4968" ry="19.4968"/>
<ellipse fill="none" stroke="#cccccc" cx="223.4983" cy="-840.1672" rx="23.4965" ry="23.4965"/>
<text text-anchor="middle" x="223.4983" y="-836.4672" font-family="Times,serif" font-size="14.00" fill="#000000">q0</text>
</g>
<!-- q1 -->
<g id="node3" class="node">
<title>q1</title>
<ellipse fill="none" stroke="#555555" cx="223.4983" cy="-746.1707" rx="19.4965" ry="19.4965"/>
<text text-anchor="middle" x="223.4983" y="-742.4707" font-family="Times,serif" font-size="14.00" fill="#555555">q1</text>
</g>
<!-- q0&#45;&gt;q1 -->
<g id="edge1" class="edge">
<title>q0&#45;&gt;q1</title>
<path fill="none" stroke="#26547c" d="M223.4983,-816.4479C223.4983,-804.2111 223.4983,-789.1574 223.4983,-776.1258"/>
<polygon fill="#26547c" stroke="#26547c" points="226.9984,-775.761 223.4983,-765.761 219.9984,-775.7611 226.9984,-775.761"/>
<text text-anchor="middle" x="249.9983" y="-787.469" font-family="Times,serif" font-size="14.00" fill="#26547c"> &#160;$, $, R &#160;</text>
</g>
<!-- qa -->
<g id="node2" class="node">
<title>qa</title>
<ellipse fill="none" stroke="#555555" cx="368.4983" cy="-22.8483" rx="18.724" ry="18.724"/>
<ellipse fill="none" stroke="#555555" cx="368.4983" cy="-22.8483" rx="22.6977" ry="22.6977"/>
<text text-anchor="middle" x="368.4983" y="-19.1483" font-family="Times,serif" font-size="14.00" fill="#555555">qa</text>
</g>
<!-- q1&#45;&gt;q1 -->
<g id="edge2" class="edge">
<title>q1&#45;&gt;q1</title>
<path fill="none" stroke="#ef476f" d="M241.6327,-754.0259C251.7135,-755.4922 260.9965,-752.8738 260.9965,-746.1707 260.9965,-741.8765 257.1868,-739.2587 251.7982,-738.3172"/>
<polygon fill="#ef476f" stroke="#ef476f" points="251.6334,-734.8173 241.6327,-738.3155 251.6321,-741.8173 251.6334,-734.8173"/>
<text text-anchor="middle" x="288.9965" y="-742.4707" font-family="Times,serif" font-size="14.00" fill="#ef476f"> &#160;1, A, R &#160;</text>
</g>
<!-- q2 -->
<g id="node4" class="node">
<title>q2</title>
<ellipse fill="none" stroke="#555555" cx="223.4983" cy="-656.1742" rx="19.4965" ry="19.4965"/>
<text text-anchor="middle" x="223.4983" y="-652.4742" font-family="Times,serif" font-size="14.00" fill="#555555">q2</text>
</g>
<!-- q1&#45;&gt;q2 -->
<g id="edge3" class="edge">
<title>q1&#45;&gt;q2</title>
<path fill="none" stroke="#ffb20f" d="M223.4983,-726.6428C223.4983,-714.8131 223.4983,-699.4817 223.4983,-686.1415"/>
<polygon fill="#ffb20f" stroke="#ffb20f" points="226.9984,-685.9747 223.4983,-675.9747 219.9984,-685.9748 226.9984,-685.9747"/>
<text text-anchor="middle" x="249.4983" y="-697.4724" font-family="Times,serif" font-size="14.00" fill="#ffb20f"> &#160;#, #, L &#160;</text>
</g>
<!-- q2&#45;&gt;q2 -->
<g id="edge4" class="edge">
<title>q2&#45;&gt;q2</title>
<path fill="none" stroke="#1a936f" d="M243.1762,-658.857C252.6412,-659.1882 260.9965,-658.294 260.9965,-656.1742 260.9965,-654.8824 257.8939,-654.0457 253.3282,-653.6641"/>
<polygon fill="#1a936f" stroke="#1a936f" points="253.2344,-650.1621 243.1762,-653.4913 253.1151,-657.1611 253.2344,-650.1621"/>
<text text-anchor="middle" x="287.4965" y="-652.4742" font-family="Times,serif" font-size="14.00" fill="#1a936f"> &#160;#, #, R &#160;</text>
</g>
<!-- q2&#45;&gt;q2 -->
<g id="edge5" class="edge">
<title>q2&#45;&gt;q2</title>
<path fill="none" stroke="#555555" d="M242.8511,-660.0293C270.9264,-663.1311 313.9965,-661.846 313.9965,-656.1742 313.9965,-651.1448 280.1318,-649.5647 252.8852,-651.4338"/>
<polygon fill="#555555" stroke="#555555" points="252.5048,-647.9537 242.8511,-652.3191 253.12,-654.9266 252.5048,-647.9537"/>
<text text-anchor="middle" x="342.9965" y="-652.4742" font-family="Times,serif" font-size="14.00" fill="#555555"> &#160;A, Z, R &#160;</text>
</g>
<!-- q2&#45;&gt;q2 -->
<g id="edge6" class="edge">
<title>q2&#45;&gt;q2</title>
<path fill="none" stroke="#26547c" d="M242.6041,-660.7C285.3472,-666.8781 371.9965,-665.3695 371.9965,-656.1742 371.9965,-647.6613 297.7319,-645.7365 252.7933,-650.3998"/>
<polygon fill="#26547c" stroke="#26547c" points="252.1042,-646.958 242.6041,-651.6483 252.9556,-653.906 252.1042,-646.958"/>
<text text-anchor="middle" x="398.4965" y="-652.4742" font-family="Times,serif" font-size="14.00" fill="#26547c"> &#160;#, #, R &#160;</text>
</g>
<!-- q3 -->
<g id="node5" class="node">
<title>q3</title>
<ellipse fill="none" stroke="#555555" cx="223.4983" cy="-566.1776" rx="19.4965" ry="19.4965"/>
<text text-anchor="middle" x="223.4983" y="-562.4776" font-family="Times,serif" font-size="14.00" fill="#555555">q3</text>
</g>
<!-- q2&#45;&gt;q3 -->
<g id="edge7" class="edge">
<title>q2&#45;&gt;q3</title>
<path fill="none" stroke="#ef476f" d="M223.4983,-636.6463C223.4983,-624.8166 223.4983,-609.4851 223.4983,-596.1449"/>
<polygon fill="#ef476f" stroke="#ef476f" points="226.9984,-595.9782 223.4983,-585.9782 219.9984,-595.9782 226.9984,-595.9782"/>
<text text-anchor="middle" x="250.9983" y="-607.4759" font-family="Times,serif" font-size="14.00" fill="#ef476f"> &#160;1, Z, R &#160;</text>
</g>
<!-- q3&#45;&gt;q3 -->
<g id="edge8" class="edge">
<title>q3&#45;&gt;q3</title>
<path fill="none" stroke="#ffb20f" d="M241.6327,-574.0328C251.7135,-575.4992 260.9965,-572.8807 260.9965,-566.1776 260.9965,-561.8834 257.1868,-559.2656 251.7982,-558.3242"/>
<polygon fill="#ffb20f" stroke="#ffb20f" points="251.6334,-554.8242 241.6327,-558.3224 251.6321,-561.8242 251.6334,-554.8242"/>
<text text-anchor="middle" x="287.4965" y="-562.4776" font-family="Times,serif" font-size="14.00" fill="#ffb20f"> &#160;1, 1, R &#160;</text>
</g>
<!-- q4 -->
<g id="node6" class="node">
<title>q4</title>
<ellipse fill="none" stroke="#555555" cx="223.4983" cy="-476.1811" rx="19.4965" ry="19.4965"/>
<text text-anchor="middle" x="223.4983" y="-472.4811" font-family="Times,serif" font-size="14.00" fill="#555555">q4</text>
</g>
<!-- q3&#45;&gt;q4 -->
<g id="edge9" class="edge">
<title>q3&#45;&gt;q4</title>
<path fill="none" stroke="#1a936f" d="M223.4983,-546.6497C223.4983,-534.8201 223.4983,-519.4886 223.4983,-506.1484"/>
<polygon fill="#1a936f" stroke="#1a936f" points="226.9984,-505.9816 223.4983,-495.9817 219.9984,-505.9817 226.9984,-505.9816"/>
<text text-anchor="middle" x="250.9983" y="-517.4794" font-family="Times,serif" font-size="14.00" fill="#1a936f"> &#160;B, #, L &#160;</text>
</g>
<!-- q4&#45;&gt;q4 -->
<g id="edge10" class="edge">
<title>q4&#45;&gt;q4</title>
<path fill="none" stroke="#555555" d="M242.7919,-480.1842C252.4139,-480.7381 260.9965,-479.4037 260.9965,-476.1811 260.9965,-474.2173 257.8095,-472.9547 253.1423,-472.3932"/>
<polygon fill="#555555" stroke="#555555" points="252.8625,-468.8867 242.7919,-472.1779 252.7169,-475.8852 252.8625,-468.8867"/>
<text text-anchor="middle" x="288.4965" y="-472.4811" font-family="Times,serif" font-size="14.00" fill="#555555"> &#160;Z, Z, L &#160;</text>
</g>
<!-- q4&#45;&gt;q4 -->
<g id="edge11" class="edge">
<title>q4&#45;&gt;q4</title>
<path fill="none" stroke="#26547c" d="M242.2502,-481.8207C270.8312,-486.6547 315.9965,-484.7748 315.9965,-476.1811 315.9965,-468.5608 280.4844,-466.2195 252.512,-469.1571"/>
<polygon fill="#26547c" stroke="#26547c" points="251.6925,-465.7359 242.2502,-470.5414 252.6284,-472.673 251.6925,-465.7359"/>
<text text-anchor="middle" x="341.9965" y="-472.4811" font-family="Times,serif" font-size="14.00" fill="#26547c"> &#160;#, #, L &#160;</text>
</g>
<!-- q5 -->
<g id="node7" class="node">
<title>q5</title>
<ellipse fill="none" stroke="#555555" cx="223.4983" cy="-386.1845" rx="19.4965" ry="19.4965"/>
<text text-anchor="middle" x="223.4983" y="-382.4845" font-family="Times,serif" font-size="14.00" fill="#555555">q5</text>
</g>
<!-- q4&#45;&gt;q5 -->
<g id="edge12" class="edge">
<title>q4&#45;&gt;q5</title>
<path fill="none" stroke="#ef476f" d="M223.4983,-456.6532C223.4983,-444.8235 223.4983,-429.4921 223.4983,-416.1519"/>
<polygon fill="#ef476f" stroke="#ef476f" points="226.9984,-415.9851 223.4983,-405.9851 219.9984,-415.9852 226.9984,-415.9851"/>
<text text-anchor="middle" x="250.4983" y="-427.4828" font-family="Times,serif" font-size="14.00" fill="#ef476f"> &#160;1, Z, L &#160;</text>
</g>
<!-- q5&#45;&gt;q5 -->
<g id="edge13" class="edge">
<title>q5&#45;&gt;q5</title>
<path fill="none" stroke="#ffb20f" d="M243.1762,-388.1967C252.6412,-388.4451 260.9965,-387.7744 260.9965,-386.1845 260.9965,-385.2157 257.8939,-384.5882 253.3282,-384.302"/>
<polygon fill="#ffb20f" stroke="#ffb20f" points="253.2201,-380.8005 243.1762,-384.1724 253.1307,-387.7999 253.2201,-380.8005"/>
<text text-anchor="middle" x="286.9965" y="-382.4845" font-family="Times,serif" font-size="14.00" fill="#ffb20f"> &#160;1, 1, L &#160;</text>
</g>
<!-- q5&#45;&gt;q5 -->
<g id="edge14" class="edge">
<title>q5&#45;&gt;q5</title>
<path fill="none" stroke="#1a936f" d="M243.1427,-389.1109C270.9526,-391.3924 312.9965,-390.417 312.9965,-386.1845 312.9965,-382.4481 280.2292,-381.25 253.4155,-382.5903"/>
<polygon fill="#1a936f" stroke="#1a936f" points="252.8945,-379.1167 243.1427,-383.2582 253.3488,-386.1019 252.8945,-379.1167"/>
<text text-anchor="middle" x="338.9965" y="-382.4845" font-family="Times,serif" font-size="14.00" fill="#1a936f"> &#160;#, #, L &#160;</text>
</g>
<!-- q5&#45;&gt;q5 -->
<g id="edge15" class="edge">
<title>q5&#45;&gt;q5</title>
<path fill="none" stroke="#555555" d="M242.9717,-389.6755C284.3809,-394.1963 364.9965,-393.0327 364.9965,-386.1845 364.9965,-379.858 296.1944,-378.383 253.0638,-381.7595"/>
<polygon fill="#555555" stroke="#555555" points="252.6065,-378.2867 242.9717,-382.6936 253.2518,-385.2569 252.6065,-378.2867"/>
<text text-anchor="middle" x="392.4965" y="-382.4845" font-family="Times,serif" font-size="14.00" fill="#555555"> &#160;Z, Z, L &#160;</text>
</g>
<!-- q5&#45;&gt;q5 -->
<g id="edge16" class="edge">
<title>q5&#45;&gt;q5</title>
<path fill="none" stroke="#26547c" d="M242.8356,-390.0794C296.2851,-396.9789 419.9965,-395.6806 419.9965,-386.1845 419.9965,-377.2449 310.3578,-375.5704 252.9157,-381.1613"/>
<polygon fill="#26547c" stroke="#26547c" points="252.3841,-377.6988 242.8356,-382.2897 253.1629,-384.6554 252.3841,-377.6988"/>
<text text-anchor="middle" x="448.4965" y="-382.4845" font-family="Times,serif" font-size="14.00" fill="#26547c"> &#160;C, C, L &#160;</text>
</g>
<!-- q6 -->
<g id="node8" class="node">
<title>q6</title>
<ellipse fill="none" stroke="#555555" cx="19.4983" cy="-296.188" rx="19.4965" ry="19.4965"/>
<text text-anchor="middle" x="19.4983" y="-292.488" font-family="Times,serif" font-size="14.00" fill="#555555">q6</text>
</g>
<!-- q5&#45;&gt;q6 -->
<g id="edge17" class="edge">
<title>q5&#45;&gt;q6</title>
<path fill="none" stroke="#ef476f" d="M204.4117,-381.7308C180.4484,-375.7899 138.3751,-364.193 104.4983,-348.6863 83.0744,-338.8797 60.4531,-324.6983 43.9376,-313.5462"/>
<polygon fill="#ef476f" stroke="#ef476f" points="45.6619,-310.4845 35.4369,-307.7094 41.6995,-316.2552 45.6619,-310.4845"/>
<text text-anchor="middle" x="133.4983" y="-337.4863" font-family="Times,serif" font-size="14.00" fill="#ef476f"> &#160;A, C, R &#160;</text>
</g>
<!-- q7 -->
<g id="node9" class="node">
<title>q7</title>
<ellipse fill="none" stroke="#555555" cx="368.4983" cy="-296.188" rx="19.4965" ry="19.4965"/>
<text text-anchor="middle" x="368.4983" y="-292.488" font-family="Times,serif" font-size="14.00" fill="#555555">q7</text>
</g>
<!-- q5&#45;&gt;q7 -->
<g id="edge23" class="edge">
<title>q5&#45;&gt;q7</title>
<path fill="none" stroke="#ffb20f" d="M237.0994,-371.969C248.9403,-360.2963 267.0566,-344.0545 285.4983,-333.6863 307.5502,-321.2882 316.7944,-326.8457 339.4983,-315.6863 341.033,-314.9319 342.5814,-314.1073 344.1217,-313.237"/>
<polygon fill="#ffb20f" stroke="#ffb20f" points="346.0443,-316.1633 352.7061,-307.9249 342.3608,-310.2108 346.0443,-316.1633"/>
<text text-anchor="middle" x="311.9983" y="-337.4863" font-family="Times,serif" font-size="14.00" fill="#ffb20f"> &#160;$, $, R &#160;</text>
</g>
<!-- q6&#45;&gt;q5 -->
<g id="edge22" class="edge">
<title>q6&#45;&gt;q5</title>
<path fill="none" stroke="#ef476f" d="M39.0103,-298.4614C67.5157,-302.3949 121.5964,-312.2078 162.4983,-333.6863 177.5747,-341.6032 192.1216,-353.8806 203.2261,-364.5723"/>
<polygon fill="#ef476f" stroke="#ef476f" points="200.7735,-367.0695 210.3281,-371.6479 205.7141,-362.1105 200.7735,-367.0695"/>
<text text-anchor="middle" x="213.4983" y="-337.4863" font-family="Times,serif" font-size="14.00" fill="#ef476f"> &#160;B, Z, L &#160;</text>
</g>
<!-- q6&#45;&gt;q6 -->
<g id="edge18" class="edge">
<title>q6&#45;&gt;q6</title>
<path fill="none" stroke="#ffb20f" d="M39.1762,-298.2002C48.6412,-298.4486 56.9965,-297.7778 56.9965,-296.188 56.9965,-295.2192 53.8939,-294.5917 49.3282,-294.3055"/>
<polygon fill="#ffb20f" stroke="#ffb20f" points="49.2201,-290.8039 39.1762,-294.1759 49.1307,-297.8034 49.2201,-290.8039"/>
<text text-anchor="middle" x="83.4965" y="-292.488" font-family="Times,serif" font-size="14.00" fill="#ffb20f"> &#160;#, #, R &#160;</text>
</g>
<!-- q6&#45;&gt;q6 -->
<g id="edge19" class="edge">
<title>q6&#45;&gt;q6</title>
<path fill="none" stroke="#1a936f" d="M38.8511,-299.0793C66.9264,-301.4057 109.9965,-300.4419 109.9965,-296.188 109.9965,-292.416 76.1318,-291.2309 48.8852,-292.6327"/>
<polygon fill="#1a936f" stroke="#1a936f" points="48.5981,-289.144 38.8511,-293.2967 49.0604,-296.1287 48.5981,-289.144"/>
<text text-anchor="middle" x="138.9965" y="-292.488" font-family="Times,serif" font-size="14.00" fill="#1a936f"> &#160;C, C, R &#160;</text>
</g>
<!-- q6&#45;&gt;q6 -->
<g id="edge20" class="edge">
<title>q6&#45;&gt;q6</title>
<path fill="none" stroke="#555555" d="M38.9045,-299.6148C81.7516,-304.2106 167.9965,-303.0684 167.9965,-296.188 167.9965,-289.8183 94.0785,-288.3665 49.1088,-291.8328"/>
<polygon fill="#555555" stroke="#555555" points="48.5461,-288.3694 38.9045,-292.7613 49.1805,-295.3406 48.5461,-288.3694"/>
<text text-anchor="middle" x="194.4965" y="-292.488" font-family="Times,serif" font-size="14.00" fill="#555555"> &#160;1, 1, R &#160;</text>
</g>
<!-- q6&#45;&gt;q6 -->
<g id="edge21" class="edge">
<title>q6&#45;&gt;q6</title>
<path fill="none" stroke="#26547c" d="M38.7218,-300.0359C92.9816,-306.9882 220.9965,-305.7056 220.9965,-296.188 220.9965,-287.2281 107.5438,-285.5664 48.9787,-291.2028"/>
<polygon fill="#26547c" stroke="#26547c" points="48.2752,-287.7593 38.7218,-292.3401 49.0467,-294.7166 48.2752,-287.7593"/>
<text text-anchor="middle" x="248.9965" y="-292.488" font-family="Times,serif" font-size="14.00" fill="#26547c"> &#160;Z, Z, R &#160;</text>
</g>
<!-- q7&#45;&gt;q5 -->
<g id="edge27" class="edge">
<title>q7&#45;&gt;q5</title>
<path fill="none" stroke="#ef476f" d="M361.8744,-314.7943C356.9989,-326.0447 349.3244,-339.8702 338.4983,-348.6863 313.8489,-368.7591 278.141,-378.2045 253.0711,-382.5724"/>
<polygon fill="#ef476f" stroke="#ef476f" points="252.3763,-379.1385 243.0415,-384.1496 253.4638,-386.0536 252.3763,-379.1385"/>
<text text-anchor="middle" x="379.4983" y="-337.4863" font-family="Times,serif" font-size="14.00" fill="#ef476f"> &#160;1, Z, L &#160;</text>
</g>
<!-- q7&#45;&gt;q7 -->
<g id="edge24" class="edge">
<title>q7&#45;&gt;q7</title>
<path fill="none" stroke="#1a936f" d="M388.1762,-298.8709C397.6412,-299.2021 405.9965,-298.3078 405.9965,-296.188 405.9965,-294.8963 402.8939,-294.0596 398.3282,-293.678"/>
<polygon fill="#1a936f" stroke="#1a936f" points="398.2344,-290.176 388.1762,-293.5051 398.1151,-297.175 398.2344,-290.176"/>
<text text-anchor="middle" x="434.9965" y="-292.488" font-family="Times,serif" font-size="14.00" fill="#1a936f"> &#160;C, A, R &#160;</text>
</g>
<!-- q7&#45;&gt;q7 -->
<g id="edge25" class="edge">
<title>q7&#45;&gt;q7</title>
<path fill="none" stroke="#555555" d="M388.0601,-299.9958C417.469,-303.1578 463.9965,-301.8885 463.9965,-296.188 463.9965,-291.111 427.0903,-289.5489 398.241,-291.5017"/>
<polygon fill="#555555" stroke="#555555" points="397.7221,-288.0334 388.0601,-292.3802 398.324,-295.0075 397.7221,-288.0334"/>
<text text-anchor="middle" x="491.9965" y="-292.488" font-family="Times,serif" font-size="14.00" fill="#555555"> &#160;Z, Z, R &#160;</text>
</g>
<!-- q7&#45;&gt;q7 -->
<g id="edge26" class="edge">
<title>q7&#45;&gt;q7</title>
<path fill="none" stroke="#26547c" d="M387.5162,-300.6704C430.8356,-306.8989 519.9965,-305.4048 519.9965,-296.188 519.9965,-287.6373 443.2566,-285.7334 397.575,-290.4763"/>
<polygon fill="#26547c" stroke="#26547c" points="397.0177,-287.0183 387.5162,-291.7056 397.867,-293.9666 397.0177,-287.0183"/>
<text text-anchor="middle" x="546.4965" y="-292.488" font-family="Times,serif" font-size="14.00" fill="#26547c"> &#160;#, #, R &#160;</text>
</g>
<!-- q8 -->
<g id="node10" class="node">
<title>q8</title>
<ellipse fill="none" stroke="#555555" cx="368.4983" cy="-206.1915" rx="19.4965" ry="19.4965"/>
<text text-anchor="middle" x="368.4983" y="-202.4915" font-family="Times,serif" font-size="14.00" fill="#555555">q8</text>
</g>
<!-- q7&#45;&gt;q8 -->
<g id="edge28" class="edge">
<title>q7&#45;&gt;q8</title>
<path fill="none" stroke="#ffb20f" d="M368.4983,-276.6601C368.4983,-264.8304 368.4983,-249.499 368.4983,-236.1588"/>
<polygon fill="#ffb20f" stroke="#ffb20f" points="371.9984,-235.992 368.4983,-225.992 364.9984,-235.9921 371.9984,-235.992"/>
<text text-anchor="middle" x="395.9983" y="-247.4897" font-family="Times,serif" font-size="14.00" fill="#ffb20f"> &#160;B, 1, L &#160;</text>
</g>
<!-- q8&#45;&gt;q8 -->
<g id="edge29" class="edge">
<title>q8&#45;&gt;q8</title>
<path fill="none" stroke="#1a936f" d="M388.1762,-208.8743C397.6412,-209.2055 405.9965,-208.3113 405.9965,-206.1915 405.9965,-204.8997 402.8939,-204.063 398.3282,-203.6814"/>
<polygon fill="#1a936f" stroke="#1a936f" points="398.2344,-200.1794 388.1762,-203.5086 398.1151,-207.1784 398.2344,-200.1794"/>
<text text-anchor="middle" x="433.4965" y="-202.4915" font-family="Times,serif" font-size="14.00" fill="#1a936f"> &#160;A, 1, L &#160;</text>
</g>
<!-- q8&#45;&gt;q8 -->
<g id="edge30" class="edge">
<title>q8&#45;&gt;q8</title>
<path fill="none" stroke="#555555" d="M387.6801,-209.9992C416.2818,-213.1612 460.9965,-211.892 460.9965,-206.1915 460.9965,-201.1367 425.8386,-199.5661 397.9321,-201.4797"/>
<polygon fill="#555555" stroke="#555555" points="397.334,-198.0188 387.6801,-202.3837 397.949,-204.9917 397.334,-198.0188"/>
<text text-anchor="middle" x="487.9965" y="-202.4915" font-family="Times,serif" font-size="14.00" fill="#555555"> &#160;Z, 1, L &#160;</text>
</g>
<!-- q8&#45;&gt;q8 -->
<g id="edge31" class="edge">
<title>q8&#45;&gt;q8</title>
<path fill="none" stroke="#26547c" d="M387.7574,-210.7605C430.1427,-216.8883 514.9965,-215.3653 514.9965,-206.1915 514.9965,-197.6985 442.2708,-195.7629 397.8445,-200.3845"/>
<polygon fill="#26547c" stroke="#26547c" points="397.2565,-196.9303 387.7574,-201.6225 398.1093,-203.8782 397.2565,-196.9303"/>
<text text-anchor="middle" x="540.9965" y="-202.4915" font-family="Times,serif" font-size="14.00" fill="#26547c"> &#160;#, #, L &#160;</text>
</g>
<!-- q9 -->
<g id="node11" class="node">
<title>q9</title>
<ellipse fill="none" stroke="#555555" cx="368.4983" cy="-116.1949" rx="19.4965" ry="19.4965"/>
<text text-anchor="middle" x="368.4983" y="-112.4949" font-family="Times,serif" font-size="14.00" fill="#555555">q9</text>
</g>
<!-- q8&#45;&gt;q9 -->
<g id="edge32" class="edge">
<title>q8&#45;&gt;q9</title>
<path fill="none" stroke="#ef476f" d="M368.4983,-186.6636C368.4983,-174.8339 368.4983,-159.5024 368.4983,-146.1622"/>
<polygon fill="#ef476f" stroke="#ef476f" points="371.9984,-145.9955 368.4983,-135.9955 364.9984,-145.9955 371.9984,-145.9955"/>
<text text-anchor="middle" x="394.9983" y="-157.4932" font-family="Times,serif" font-size="14.00" fill="#ef476f"> &#160;$, $, R &#160;</text>
</g>
<!-- q9&#45;&gt;qa -->
<g id="edge35" class="edge">
<title>q9&#45;&gt;qa</title>
<path fill="none" stroke="#555555" d="M368.4983,-96.3985C368.4983,-84.7434 368.4983,-69.6962 368.4983,-56.2514"/>
<polygon fill="#555555" stroke="#555555" points="371.9984,-55.9078 368.4983,-45.9078 364.9984,-55.9078 371.9984,-55.9078"/>
<text text-anchor="middle" x="397.4983" y="-67.4967" font-family="Times,serif" font-size="14.00" fill="#555555"> &#160;B, B, R &#160;</text>
</g>
<!-- q9&#45;&gt;q9 -->
<g id="edge33" class="edge">
<title>q9&#45;&gt;q9</title>
<path fill="none" stroke="#ffb20f" d="M387.7919,-120.1981C397.4139,-120.752 405.9965,-119.4176 405.9965,-116.1949 405.9965,-114.2311 402.8095,-112.9685 398.1423,-112.4071"/>
<polygon fill="#ffb20f" stroke="#ffb20f" points="397.8625,-108.9006 387.7919,-112.1918 397.7169,-115.8991 397.8625,-108.9006"/>
<text text-anchor="middle" x="432.4965" y="-112.4949" font-family="Times,serif" font-size="14.00" fill="#ffb20f"> &#160;1, 1, R &#160;</text>
</g>
<!-- q9&#45;&gt;q9 -->
<g id="edge34" class="edge">
<title>q9&#45;&gt;q9</title>
<path fill="none" stroke="#1a936f" d="M387.4268,-121.9066C415.4903,-126.6496 458.9965,-124.7457 458.9965,-116.1949 458.9965,-108.6128 424.7889,-106.2569 397.4728,-109.1273"/>
<polygon fill="#1a936f" stroke="#1a936f" points="396.8688,-105.677 387.4268,-110.4833 397.8052,-112.6141 396.8688,-105.677"/>
<text text-anchor="middle" x="485.4965" y="-112.4949" font-family="Times,serif" font-size="14.00" fill="#1a936f"> &#160;#, #, R &#160;</text>
</g>
</g>
</svg>
