<?xml version="1.0" encoding="UTF-8" standalone="no"?>
<!DOCTYPE svg PUBLIC "-//W3C//DTD SVG 1.1//EN"
 "http://www.w3.org/Graphics/SVG/1.1/DTD/svg11.dtd">
<!-- Generated by graphviz version 2.40.1 (20161225.0304)
 -->
<!-- Title: turing_machine Pages: 1 -->
<svg width="643pt" height="512pt"
 viewBox="0.00 0.00 643.00 511.68" xmlns="http://www.w3.org/2000/svg" xmlns:xlink="http://www.w3.org/1999/xlink">
<g id="graph0" class="graph" transform="scale(1 1) rotate(0) translate(4 507.6794)">
<title>turing_machine</title>
<polygon fill="#ffffff" stroke="transparent" points="-4,4 -4,-507.6794 638.9965,-507.6794 638.9965,4 -4,4"/>
<!-- q0 -->
<g id="node1" class="node">
<title>q0</title>
<ellipse fill="#cccccc" stroke="#cccccc" cx="391.4983" cy="-480.1811" rx="19.4968" ry="19.4968"/>
<ellipse fill="none" stroke="#cccccc" cx="391.4983" cy="-480.1811" rx="23.4965" ry="23.4965"/>
<text text-anchor="middle" x="391.4983" y="-476.4811" font-family="Times,serif" font-size="14.00" fill="#000000">q0</text>
</g>
<!-- q1 -->
<g id="node3" class="node">
<title>q1</title>
<ellipse fill="none" stroke="#555555" cx="391.4983" cy="-386.1845" rx="19.4965" ry="19.4965"/>
<text text-anchor="middle" x="391.4983" y="-382.4845" font-family="Times,serif" font-size="14.00" fill="#555555">q1</text>
</g>
<!-- q0&#45;&gt;q1 -->
<g id="edge1" class="edge">
<title>q0&#45;&gt;q1</title>
<path fill="none" stroke="#ffb20f" d="M391.4983,-456.4618C391.4983,-444.2249 391.4983,-429.1712 391.4983,-416.1396"/>
<polygon fill="#ffb20f" stroke="#ffb20f" points="394.9984,-415.7748 391.4983,-405.7749 387.9984,-415.7749 394.9984,-415.7748"/>
<text text-anchor="middle" x="417.9983" y="-427.4828" font-family="Times,serif" font-size="14.00" fill="#ffb20f"> &#160;$, $, R &#160;</text>
</g>
<!-- qa -->
<g id="node2" class="node">
<title>qa</title>
<ellipse fill="none" stroke="#555555" cx="295.4983" cy="-22.8483" rx="18.724" ry="18.724"/>
<ellipse fill="none" stroke="#555555" cx="295.4983" cy="-22.8483" rx="22.6977" ry="22.6977"/>
<text text-anchor="middle" x="295.4983" y="-19.1483" font-family="Times,serif" font-size="14.00" fill="#555555">qa</text>
</g>
<!-- q1&#45;&gt;q1 -->
<g id="edge2" class="edge">
<title>q1&#45;&gt;q1</title>
<path fill="none" stroke="#1a936f" d="M409.6327,-394.0398C419.7135,-395.5061 428.9965,-392.8877 428.9965,-386.1845 428.9965,-381.8904 425.1868,-379.2725 419.7982,-378.3311"/>
<polygon fill="#1a936f" stroke="#1a936f" points="419.6334,-374.8312 409.6327,-378.3293 419.6321,-381.8312 419.6334,-374.8312"/>
<text text-anchor="middle" x="455.4965" y="-382.4845" font-family="Times,serif" font-size="14.00" fill="#1a936f"> &#160;1, 1, R &#160;</text>
</g>
<!-- q2 -->
<g id="node4" class="node">
<title>q2</title>
<ellipse fill="none" stroke="#555555" cx="391.4983" cy="-296.188" rx="19.4965" ry="19.4965"/>
<text text-anchor="middle" x="391.4983" y="-292.488" font-family="Times,serif" font-size="14.00" fill="#555555">q2</text>
</g>
<!-- q1&#45;&gt;q2 -->
<g id="edge3" class="edge">
<title>q1&#45;&gt;q2</title>
<path fill="none" stroke="#555555" d="M391.4983,-366.6566C391.4983,-354.827 391.4983,-339.4955 391.4983,-326.1553"/>
<polygon fill="#555555" stroke="#555555" points="394.9984,-325.9886 391.4983,-315.9886 387.9984,-325.9886 394.9984,-325.9886"/>
<text text-anchor="middle" x="417.9983" y="-337.4863" font-family="Times,serif" font-size="14.00" fill="#555555"> &#160;#, #, R &#160;</text>
</g>
<!-- q2&#45;&gt;q2 -->
<g id="edge4" class="edge">
<title>q2&#45;&gt;q2</title>
<path fill="none" stroke="#26547c" d="M410.7919,-300.1911C420.4139,-300.745 428.9965,-299.4107 428.9965,-296.188 428.9965,-294.2242 425.8095,-292.9616 421.1423,-292.4002"/>
<polygon fill="#26547c" stroke="#26547c" points="420.8625,-288.8937 410.7919,-292.1849 420.7169,-295.8922 420.8625,-288.8937"/>
<text text-anchor="middle" x="455.4965" y="-292.488" font-family="Times,serif" font-size="14.00" fill="#26547c"> &#160;#, #, R &#160;</text>
</g>
<!-- q2&#45;&gt;q2 -->
<g id="edge5" class="edge">
<title>q2&#45;&gt;q2</title>
<path fill="none" stroke="#ef476f" d="M410.4268,-301.8997C438.4903,-306.6427 481.9965,-304.7388 481.9965,-296.188 481.9965,-288.6059 447.7889,-286.25 420.4728,-289.1204"/>
<polygon fill="#ef476f" stroke="#ef476f" points="419.8688,-285.6701 410.4268,-290.4764 420.8052,-292.6072 419.8688,-285.6701"/>
<text text-anchor="middle" x="511.4965" y="-292.488" font-family="Times,serif" font-size="14.00" fill="#ef476f"> &#160;X, X, R &#160;</text>
</g>
<!-- q4 -->
<g id="node5" class="node">
<title>q4</title>
<ellipse fill="none" stroke="#555555" cx="182.4983" cy="-206.1915" rx="19.4965" ry="19.4965"/>
<text text-anchor="middle" x="182.4983" y="-202.4915" font-family="Times,serif" font-size="14.00" fill="#555555">q4</text>
</g>
<!-- q2&#45;&gt;q4 -->
<g id="edge6" class="edge">
<title>q2&#45;&gt;q4</title>
<path fill="none" stroke="#ffb20f" d="M373.3165,-288.3588C336.5541,-272.5287 253.2079,-236.6394 209.8519,-217.9701"/>
<polygon fill="#ffb20f" stroke="#ffb20f" points="211.0581,-214.6788 200.4892,-213.9384 208.2896,-221.1081 211.0581,-214.6788"/>
<text text-anchor="middle" x="327.9983" y="-247.4897" font-family="Times,serif" font-size="14.00" fill="#ffb20f"> &#160;B, #, L &#160;</text>
</g>
<!-- q3 -->
<g id="node6" class="node">
<title>q3</title>
<ellipse fill="none" stroke="#555555" cx="469.4983" cy="-206.1915" rx="19.4965" ry="19.4965"/>
<text text-anchor="middle" x="469.4983" y="-202.4915" font-family="Times,serif" font-size="14.00" fill="#555555">q3</text>
</g>
<!-- q2&#45;&gt;q3 -->
<g id="edge7" class="edge">
<title>q2&#45;&gt;q3</title>
<path fill="none" stroke="#1a936f" d="M387.2575,-277.064C385.9723,-266.4436 386.2671,-253.4471 392.4983,-243.6897 403.0358,-227.1891 423.1037,-217.7424 440.1107,-212.4584"/>
<polygon fill="#1a936f" stroke="#1a936f" points="441.4808,-215.7114 450.1917,-209.6806 439.6212,-208.9629 441.4808,-215.7114"/>
<text text-anchor="middle" x="419.9983" y="-247.4897" font-family="Times,serif" font-size="14.00" fill="#1a936f"> &#160;1, X, L &#160;</text>
</g>
<!-- q4&#45;&gt;q4 -->
<g id="edge8" class="edge">
<title>q4&#45;&gt;q4</title>
<path fill="none" stroke="#555555" d="M201.7919,-210.1946C211.4139,-210.7485 219.9965,-209.4141 219.9965,-206.1915 219.9965,-204.2277 216.8095,-202.965 212.1423,-202.4036"/>
<polygon fill="#555555" stroke="#555555" points="211.8625,-198.8971 201.7919,-202.1883 211.7169,-205.8956 211.8625,-198.8971"/>
<text text-anchor="middle" x="248.9965" y="-202.4915" font-family="Times,serif" font-size="14.00" fill="#555555"> &#160;X, X, L &#160;</text>
</g>
<!-- q4&#45;&gt;q4 -->
<g id="edge9" class="edge">
<title>q4&#45;&gt;q4</title>
<path fill="none" stroke="#26547c" d="M201.6181,-211.8311C231.0002,-216.6651 277.9965,-214.7852 277.9965,-206.1915 277.9965,-198.5377 240.7184,-196.2094 211.8067,-199.2066"/>
<polygon fill="#26547c" stroke="#26547c" points="211.0739,-195.7729 201.6181,-200.5518 211.9902,-202.7127 211.0739,-195.7729"/>
<text text-anchor="middle" x="303.9965" y="-202.4915" font-family="Times,serif" font-size="14.00" fill="#26547c"> &#160;#, #, L &#160;</text>
</g>
<!-- q5 -->
<g id="node7" class="node">
<title>q5</title>
<ellipse fill="none" stroke="#555555" cx="19.4983" cy="-116.1949" rx="19.4965" ry="19.4965"/>
<text text-anchor="middle" x="19.4983" y="-112.4949" font-family="Times,serif" font-size="14.00" fill="#555555">q5</text>
</g>
<!-- q4&#45;&gt;q5 -->
<g id="edge10" class="edge">
<title>q4&#45;&gt;q5</title>
<path fill="none" stroke="#ef476f" d="M163.1073,-203.3972C138.4915,-199.1319 95.5035,-189.2257 64.4983,-168.6932 53.6607,-161.5163 43.9403,-151.0184 36.331,-141.2928"/>
<polygon fill="#ef476f" stroke="#ef476f" points="38.9824,-138.9925 30.2124,-133.0479 33.3612,-143.164 38.9824,-138.9925"/>
<text text-anchor="middle" x="92.4983" y="-157.4932" font-family="Times,serif" font-size="14.00" fill="#ef476f"> &#160;1, X, R &#160;</text>
</g>
<!-- q6 -->
<g id="node8" class="node">
<title>q6</title>
<ellipse fill="none" stroke="#555555" cx="295.4983" cy="-116.1949" rx="19.4965" ry="19.4965"/>
<text text-anchor="middle" x="295.4983" y="-112.4949" font-family="Times,serif" font-size="14.00" fill="#555555">q6</text>
</g>
<!-- q4&#45;&gt;q6 -->
<g id="edge11" class="edge">
<title>q4&#45;&gt;q6</title>
<path fill="none" stroke="#ffb20f" d="M198.2104,-193.6778C217.3538,-178.4315 249.8736,-152.5318 271.9985,-134.9108"/>
<polygon fill="#ffb20f" stroke="#ffb20f" points="274.2777,-137.57 279.9195,-128.6023 269.9168,-132.0944 274.2777,-137.57"/>
<text text-anchor="middle" x="272.9983" y="-157.4932" font-family="Times,serif" font-size="14.00" fill="#ffb20f"> &#160;$, $, R &#160;</text>
</g>
<!-- q3&#45;&gt;q2 -->
<g id="edge16" class="edge">
<title>q3&#45;&gt;q2</title>
<path fill="none" stroke="#ffb20f" d="M464.5282,-225.1166C461.0382,-235.7998 455.5382,-248.9243 447.4983,-258.6897 439.4454,-268.4708 428.1861,-276.6863 417.8735,-282.9107"/>
<polygon fill="#ffb20f" stroke="#ffb20f" points="416.1278,-279.877 409.159,-287.8574 419.5834,-285.9646 416.1278,-279.877"/>
<text text-anchor="middle" x="485.4983" y="-247.4897" font-family="Times,serif" font-size="14.00" fill="#ffb20f"> &#160;1, X, R &#160;</text>
</g>
<!-- q3&#45;&gt;q3 -->
<g id="edge17" class="edge">
<title>q3&#45;&gt;q3</title>
<path fill="none" stroke="#1a936f" d="M488.7919,-210.1946C498.4139,-210.7485 506.9965,-209.4141 506.9965,-206.1915 506.9965,-204.2277 503.8095,-202.965 499.1423,-202.4036"/>
<polygon fill="#1a936f" stroke="#1a936f" points="498.8625,-198.8971 488.7919,-202.1883 498.7169,-205.8956 498.8625,-198.8971"/>
<text text-anchor="middle" x="532.9965" y="-202.4915" font-family="Times,serif" font-size="14.00" fill="#1a936f"> &#160;#, #, L &#160;</text>
</g>
<!-- q3&#45;&gt;q3 -->
<g id="edge18" class="edge">
<title>q3&#45;&gt;q3</title>
<path fill="none" stroke="#555555" d="M488.3002,-211.9031C516.0945,-216.6461 558.9965,-214.7422 558.9965,-206.1915 558.9965,-198.6093 525.264,-196.2534 498.2432,-199.1238"/>
<polygon fill="#555555" stroke="#555555" points="497.7355,-195.6606 488.3002,-200.4798 498.6814,-202.5964 497.7355,-195.6606"/>
<text text-anchor="middle" x="587.9965" y="-202.4915" font-family="Times,serif" font-size="14.00" fill="#555555"> &#160;X, X, L &#160;</text>
</g>
<!-- qr -->
<g id="node9" class="node">
<title>qr</title>
<ellipse fill="none" stroke="#555555" cx="567.4983" cy="-116.1949" rx="18.399" ry="18.399"/>
<text text-anchor="middle" x="567.4983" y="-112.4949" font-family="Times,serif" font-size="14.00" fill="#555555">qr</text>
</g>
<!-- q3&#45;&gt;qr -->
<g id="edge19" class="edge">
<title>q3&#45;&gt;qr</title>
<path fill="none" stroke="#26547c" d="M483.9585,-192.9122C500.4505,-177.7671 527.5635,-152.8683 546.4104,-135.5606"/>
<polygon fill="#26547c" stroke="#26547c" points="548.9284,-138.0002 553.9265,-128.6583 544.1937,-132.8444 548.9284,-138.0002"/>
<text text-anchor="middle" x="550.4983" y="-157.4932" font-family="Times,serif" font-size="14.00" fill="#26547c"> &#160;$, $, L &#160;</text>
</g>
<!-- q5&#45;&gt;q4 -->
<g id="edge15" class="edge">
<title>q5&#45;&gt;q4</title>
<path fill="none" stroke="#ef476f" d="M38.6121,-121.1364C59.5995,-127.0418 93.8555,-138.1168 120.4983,-153.6932 135.3379,-162.369 150.1,-174.6827 161.4952,-185.2042"/>
<polygon fill="#ef476f" stroke="#ef476f" points="159.1407,-187.7949 168.8058,-192.1352 163.9569,-182.715 159.1407,-187.7949"/>
<text text-anchor="middle" x="170.4983" y="-157.4932" font-family="Times,serif" font-size="14.00" fill="#ef476f"> &#160;B, X, L &#160;</text>
</g>
<!-- q5&#45;&gt;q5 -->
<g id="edge12" class="edge">
<title>q5&#45;&gt;q5</title>
<path fill="none" stroke="#1a936f" d="M39.1762,-118.8778C48.6412,-119.209 56.9965,-118.3147 56.9965,-116.1949 56.9965,-114.9032 53.8939,-114.0665 49.3282,-113.6849"/>
<polygon fill="#1a936f" stroke="#1a936f" points="49.2344,-110.1829 39.1762,-113.5121 49.1151,-117.1819 49.2344,-110.1829"/>
<text text-anchor="middle" x="86.4965" y="-112.4949" font-family="Times,serif" font-size="14.00" fill="#1a936f"> &#160;X, X, R &#160;</text>
</g>
<!-- q5&#45;&gt;q5 -->
<g id="edge13" class="edge">
<title>q5&#45;&gt;q5</title>
<path fill="none" stroke="#555555" d="M38.7407,-119.9547C68.3898,-123.1773 115.9965,-121.9241 115.9965,-116.1949 115.9965,-111.0924 78.2343,-109.5402 49.028,-111.5384"/>
<polygon fill="#555555" stroke="#555555" points="48.3989,-108.0798 38.7407,-112.4352 49.0069,-115.0534 48.3989,-108.0798"/>
<text text-anchor="middle" x="142.4965" y="-112.4949" font-family="Times,serif" font-size="14.00" fill="#555555"> &#160;#, #, R &#160;</text>
</g>
<!-- q5&#45;&gt;q5 -->
<g id="edge14" class="edge">
<title>q5&#45;&gt;q5</title>
<path fill="none" stroke="#26547c" d="M38.6761,-120.7207C81.6484,-126.8988 168.9965,-125.3902 168.9965,-116.1949 168.9965,-107.6641 93.8168,-105.7492 48.6379,-110.4501"/>
<polygon fill="#26547c" stroke="#26547c" points="48.1769,-106.9803 38.6761,-111.6691 49.0272,-113.9285 48.1769,-106.9803"/>
<text text-anchor="middle" x="195.4965" y="-112.4949" font-family="Times,serif" font-size="14.00" fill="#26547c"> &#160;1, 1, R &#160;</text>
</g>
<!-- q6&#45;&gt;qa -->
<g id="edge23" class="edge">
<title>q6&#45;&gt;qa</title>
<path fill="none" stroke="#555555" d="M295.4983,-96.3985C295.4983,-84.7434 295.4983,-69.6962 295.4983,-56.2514"/>
<polygon fill="#555555" stroke="#555555" points="298.9984,-55.9078 295.4983,-45.9078 291.9984,-55.9078 298.9984,-55.9078"/>
<text text-anchor="middle" x="322.9983" y="-67.4967" font-family="Times,serif" font-size="14.00" fill="#555555"> &#160;B, 1, R &#160;</text>
</g>
<!-- q6&#45;&gt;q6 -->
<g id="edge20" class="edge">
<title>q6&#45;&gt;q6</title>
<path fill="none" stroke="#ef476f" d="M315.1762,-118.8778C324.6412,-119.209 332.9965,-118.3147 332.9965,-116.1949 332.9965,-114.9032 329.8939,-114.0665 325.3282,-113.6849"/>
<polygon fill="#ef476f" stroke="#ef476f" points="325.2344,-110.1829 315.1762,-113.5121 325.1151,-117.1819 325.2344,-110.1829"/>
<text text-anchor="middle" x="360.9965" y="-112.4949" font-family="Times,serif" font-size="14.00" fill="#ef476f"> &#160;X, 1, R &#160;</text>
</g>
<!-- q6&#45;&gt;q6 -->
<g id="edge21" class="edge">
<title>q6&#45;&gt;q6</title>
<path fill="none" stroke="#ffb20f" d="M314.8068,-120.0027C343.6775,-123.1647 388.9965,-121.8954 388.9965,-116.1949 388.9965,-111.1179 353.0489,-109.5558 324.7895,-111.5087"/>
<polygon fill="#ffb20f" stroke="#ffb20f" points="324.4614,-108.0239 314.8068,-112.3872 325.0752,-114.997 324.4614,-108.0239"/>
<text text-anchor="middle" x="415.4965" y="-112.4949" font-family="Times,serif" font-size="14.00" fill="#ffb20f"> &#160;#, #, R &#160;</text>
</g>
<!-- q6&#45;&gt;q6 -->
<g id="edge22" class="edge">
<title>q6&#45;&gt;q6</title>
<path fill="none" stroke="#1a936f" d="M314.7574,-120.7639C357.1427,-126.8918 441.9965,-125.3688 441.9965,-116.1949 441.9965,-107.702 369.2708,-105.7663 324.8445,-110.388"/>
<polygon fill="#1a936f" stroke="#1a936f" points="324.2565,-106.9338 314.7574,-111.6259 325.1093,-113.8816 324.2565,-106.9338"/>
<text text-anchor="middle" x="468.4965" y="-112.4949" font-family="Times,serif" font-size="14.00" fill="#1a936f"> &#160;1, 1, R &#160;</text>
</g>
</g>
</svg>
